<svg width="118" height="32" viewBox="0 0 118 32" fill="none" xmlns="http://www.w3.org/2000/svg">
<path d="M47.682 10.292V23H45.126V17.474H39.69V23H37.152V10.292H39.69V15.44H45.126V10.292H47.682ZM54.592 12.902C55.564 12.902 56.434 13.106 57.202 13.514C57.982 13.922 58.594 14.516 59.038 15.296C59.482 16.064 59.704 16.97 59.704 18.014C59.704 19.058 59.482 19.964 59.038 20.732C58.594 21.5 57.982 22.094 57.202 22.514C56.434 22.922 55.564 23.126 54.592 23.126C53.62 23.126 52.744 22.922 51.964 22.514C51.196 22.094 50.59 21.5 50.146 20.732C49.702 19.964 49.48 19.058 49.48 18.014C49.48 16.97 49.702 16.064 50.146 15.296C50.59 14.516 51.196 13.922 51.964 13.514C52.744 13.106 53.62 12.902 54.592 12.902ZM54.592 15.098C53.884 15.098 53.284 15.35 52.792 15.854C52.3 16.346 52.054 17.066 52.054 18.014C52.054 18.962 52.3 19.688 52.792 20.192C53.284 20.684 53.884 20.93 54.592 20.93C55.3 20.93 55.9 20.684 56.392 20.192C56.884 19.688 57.13 18.962 57.13 18.014C57.13 17.066 56.884 16.346 56.392 15.854C55.9 15.35 55.3 15.098 54.592 15.098ZM66.1057 12.902C67.0777 12.902 67.9477 13.106 68.7157 13.514C69.4957 13.922 70.1077 14.516 70.5517 15.296C70.9957 16.064 71.2177 16.97 71.2177 18.014C71.2177 19.058 70.9957 19.964 70.5517 20.732C70.1077 21.5 69.4957 22.094 68.7157 22.514C67.9477 22.922 67.0777 23.126 66.1057 23.126C65.1337 23.126 64.2577 22.922 63.4777 22.514C62.7097 22.094 62.1037 21.5 61.6597 20.732C61.2157 19.964 60.9937 19.058 60.9937 18.014C60.9937 16.97 61.2157 16.064 61.6597 15.296C62.1037 14.516 62.7097 13.922 63.4777 13.514C64.2577 13.106 65.1337 12.902 66.1057 12.902ZM66.1057 15.098C65.3977 15.098 64.7977 15.35 64.3057 15.854C63.8137 16.346 63.5677 17.066 63.5677 18.014C63.5677 18.962 63.8137 19.688 64.3057 20.192C64.7977 20.684 65.3977 20.93 66.1057 20.93C66.8137 20.93 67.4137 20.684 67.9057 20.192C68.3977 19.688 68.6437 18.962 68.6437 18.014C68.6437 17.066 68.3977 16.346 67.9057 15.854C67.4137 15.35 66.8137 15.098 66.1057 15.098Z" fill="white"/>
<path d="M80.1034 16.448C80.8714 16.604 81.4834 16.97 81.9394 17.546C82.4074 18.11 82.6414 18.776 82.6414 19.544C82.6414 20.612 82.2814 21.458 81.5614 22.082C80.8534 22.694 79.8214 23 78.4654 23H73.0114V10.292H78.3574C79.6414 10.292 80.6254 10.574 81.3094 11.138C82.0054 11.702 82.3534 12.494 82.3534 13.514C82.3534 14.306 82.1434 14.954 81.7234 15.458C81.3154 15.962 80.7754 16.292 80.1034 16.448ZM75.5494 15.62H77.8354C78.4714 15.62 78.9514 15.482 79.2754 15.206C79.6114 14.918 79.7794 14.51 79.7794 13.982C79.7794 13.454 79.6174 13.046 79.2934 12.758C78.9694 12.47 78.4714 12.326 77.7994 12.326H75.5494V15.62ZM77.9614 20.93C78.6334 20.93 79.1494 20.786 79.5094 20.498C79.8694 20.198 80.0494 19.766 80.0494 19.202C80.0494 18.638 79.8634 18.206 79.4914 17.906C79.1314 17.594 78.6154 17.438 77.9434 17.438H75.5494V20.93H77.9614ZM88.3256 12.902C89.1656 12.902 89.8856 13.1 90.4856 13.496C91.0856 13.892 91.5116 14.426 91.7636 15.098V13.028H94.2836V23H91.7636V20.912C91.5116 21.584 91.0856 22.124 90.4856 22.532C89.8856 22.928 89.1656 23.126 88.3256 23.126C87.4856 23.126 86.7296 22.922 86.0576 22.514C85.3856 22.106 84.8576 21.518 84.4736 20.75C84.1016 19.97 83.9156 19.058 83.9156 18.014C83.9156 16.97 84.1016 16.064 84.4736 15.296C84.8576 14.516 85.3856 13.922 86.0576 13.514C86.7296 13.106 87.4856 12.902 88.3256 12.902ZM89.1176 15.116C88.3256 15.116 87.6896 15.374 87.2096 15.89C86.7296 16.406 86.4896 17.114 86.4896 18.014C86.4896 18.914 86.7296 19.622 87.2096 20.138C87.6896 20.642 88.3256 20.894 89.1176 20.894C89.8856 20.894 90.5156 20.636 91.0076 20.12C91.5116 19.592 91.7636 18.89 91.7636 18.014C91.7636 17.126 91.5116 16.424 91.0076 15.908C90.5156 15.38 89.8856 15.116 89.1176 15.116ZM102.524 12.884C103.676 12.884 104.594 13.262 105.278 14.018C105.962 14.774 106.304 15.836 106.304 17.204V23H103.784V17.492C103.784 16.7 103.58 16.088 103.172 15.656C102.764 15.212 102.206 14.99 101.498 14.99C100.778 14.99 100.202 15.224 99.7696 15.692C99.3376 16.16 99.1216 16.832 99.1216 17.708V23H96.5836V13.028H99.1216V15.026C99.3856 14.354 99.8176 13.832 100.418 13.46C101.03 13.076 101.732 12.884 102.524 12.884ZM114.369 23L111.075 18.644V23H108.537V9.68H111.075V17.168L114.351 13.028H117.357L113.163 17.996L117.465 23H114.369Z" fill="#5CE1E6"/>
<path d="M16 0C12.8355 -3.77363e-08 9.74206 0.938383 7.11088 2.69649C4.47969 4.45459 2.42893 6.95345 1.21793 9.87706C0.00692588 12.8007 -0.309928 16.0177 0.307435 19.1214C0.924798 22.2251 2.44865 25.0761 4.68629 27.3137C6.92393 29.5513 9.77485 31.0752 12.8786 31.6926C15.9822 32.3099 19.1993 31.9931 22.1229 30.7821C25.0465 29.5711 27.5454 27.5203 29.3035 24.8891C31.0616 22.2579 32 19.1645 32 16L24 16C24 17.5823 23.5308 19.129 22.6518 20.4446C21.7727 21.7602 20.5233 22.7855 19.0615 23.391C17.5997 23.9965 15.9911 24.155 14.4393 23.8463C12.8874 23.5376 11.462 22.7757 10.3431 21.6569C9.22432 20.538 8.4624 19.1126 8.15372 17.5607C7.84504 16.0089 8.00346 14.4003 8.60896 12.9385C9.21447 11.4767 10.2398 10.2273 11.5554 9.34824C12.871 8.46919 14.4177 8 16 8V0Z" fill="white"/>
<path d="M16 0C13.8989 -2.5056e-08 11.8183 0.413852 9.87706 1.21793C7.93585 2.022 6.17203 3.20055 4.68629 4.68629C3.20055 6.17203 2.022 7.93586 1.21793 9.87707C0.413852 11.8183 -3.17265e-07 13.8989 0 16H8C8 14.9494 8.20693 13.9091 8.60896 12.9385C9.011 11.9679 9.60028 11.086 10.3431 10.3431C11.086 9.60028 11.9679 9.011 12.9385 8.60896C13.9091 8.20693 14.9494 8 16 8V0Z" fill="#5CE1E6"/>
<circle cx="16" cy="16" r="5" fill="#5CE1E6"/>
<path d="M21 16C21 15.3434 20.8707 14.6932 20.6194 14.0866C20.3681 13.48 19.9998 12.9288 19.5355 12.4645C19.0712 12.0002 18.52 11.6319 17.9134 11.3806C17.3068 11.1293 16.6566 11 16 11C15.3434 11 14.6932 11.1293 14.0866 11.3806C13.48 11.6319 12.9288 12.0002 12.4645 12.4645C12.0002 12.9288 11.6319 13.48 11.3806 14.0866C11.1293 14.6932 11 15.3434 11 16L16 16H21Z" fill="white"/>
</svg>
